<?xml version="1.0" encoding="UTF-8"?>
<svg xmlns="http://www.w3.org/2000/svg" xmlns:xlink="http://www.w3.org/1999/xlink" width="3840" height="2160" viewBox="0 0 3840 2160">
<defs>
<clipPath id="clip-0">
<path clip-rule="nonzero" d="M 0.1875 0 L 0.0429688 0.03125 L 0 2159.949219 L 3839.441406 2160 L 3839.628906 0.0507812 Z M 0.1875 0 "/>
</clipPath>
<clipPath id="clip-1">
<path clip-rule="nonzero" d="M 0.1875 0 L 0.0429688 0.03125 L 0 2159.949219 L 3839.441406 2160 L 3839.628906 0.0507812 Z M 0.1875 0 "/>
</clipPath>
<linearGradient id="linear-pattern-0" gradientUnits="userSpaceOnUse" x1="695.551" y1="2140.4" x2="695.551" y2="-739.6" gradientTransform="matrix(0.75, 0, 0, 0.75, 1505.94, 554.7)">
<stop offset="0" stop-color="#c3e5a5" stop-opacity="1"/>
<stop offset="0.3" stop-color="#c3e5a5" stop-opacity="1"/>
<stop offset="0.5" stop-color="#b2d892" stop-opacity="1"/>
<stop offset="0.7" stop-color="#a1c780" stop-opacity="1"/>
<stop offset="1" stop-color="#91b670" stop-opacity="0.8"/>
</linearGradient>
</defs>
<g clip-path="url(#clip-0)">
<g clip-path="url(#clip-1)">
<path fill-rule="nonzero" fill="url(#linear-pattern-0)" d="M 0 0 L 0 2160 L 3839.628906 2160 L 3839.628906 0 Z M 0 0 "/>
</g>
</g>
<path fill-rule="nonzero" fill="rgb(7.835388%, 39.598083%, 28.637695%)" fill-opacity="1" d="M 2921.359375 912.878906 L 2921.359375 912.890625 C 2921.359375 912.890625 2921.359375 912.890625 2921.371094 912.890625 C 2934.75 912.890625 2945.609375 923.738281 2945.609375 937.128906 L 2945.609375 1013.949219 C 2945.609375 1027.339844 2934.75 1038.199219 2921.359375 1038.199219 C 2907.96875 1038.199219 2897.109375 1027.339844 2897.109375 1013.949219 L 2897.109375 937.128906 C 2897.109375 923.738281 2907.96875 912.878906 2921.359375 912.878906 Z M 1376.5 1071.71875 C 1376.511719 1071.71875 1376.511719 1071.71875 1376.511719 1071.71875 C 1393.980469 1071.71875 1394.570312 1091.851562 1394.570312 1091.851562 L 1394.570312 1171.082031 L 1357.558594 1171.179688 L 1357.558594 1091.851562 C 1359.421875 1071.730469 1376.5 1071.730469 1376.5 1071.730469 Z M 1247.589844 1071.71875 C 1264.671875 1071.71875 1265.261719 1091.839844 1265.261719 1091.839844 L 1265.261719 1171.179688 L 1228.441406 1171.277344 L 1228.441406 1091.839844 C 1230.5 1071.71875 1247.578125 1071.71875 1247.578125 1071.71875 Z M 1311.898438 1071.71875 C 1329.46875 1071.71875 1329.871094 1091.839844 1329.871094 1091.839844 L 1329.871094 1171.179688 L 1293.050781 1171.277344 L 1293.140625 1091.839844 C 1294.710938 1071.71875 1311.890625 1071.71875 1311.890625 1071.71875 Z M 2921.359375 1200.121094 C 2921.359375 1200.121094 2921.359375 1200.121094 2921.371094 1200.121094 C 2934.75 1200.121094 2945.609375 1210.976562 2945.609375 1224.371094 L 2945.609375 1301.1875 C 2945.609375 1314.582031 2934.75 1325.4375 2921.359375 1325.4375 C 2907.96875 1325.4375 2897.109375 1314.582031 2897.109375 1301.1875 L 2897.109375 1224.371094 C 2897.109375 1210.976562 2907.96875 1200.121094 2921.359375 1200.121094 Z M 1278.519531 1298.917969 C 1295.789062 1298.917969 1296.480469 1319.046875 1296.480469 1319.046875 C 1296.390625 1398.476562 1296.480469 1398.476562 1296.480469 1398.476562 L 1259.558594 1398.574219 L 1259.570312 1319.046875 C 1261.53125 1298.925781 1278.511719 1298.925781 1278.511719 1298.925781 Z M 1348.910156 1299.015625 L 1348.910156 1299.019531 C 1348.910156 1299.019531 1348.910156 1299.019531 1348.921875 1299.019531 C 1366.191406 1299.019531 1366.691406 1319.144531 1366.691406 1319.144531 L 1366.691406 1398.578125 L 1329.769531 1398.671875 L 1329.769531 1319.144531 C 1331.730469 1299.023438 1348.910156 1299.023438 1348.910156 1299.023438 Z M 334.488281 1341.371094 C 346.644531 1341.371094 356.5 1351.226562 356.5 1363.382812 L 356.5 1434.390625 C 356.5 1446.546875 346.644531 1456.40625 334.488281 1456.40625 C 322.328125 1456.40625 312.472656 1446.546875 312.472656 1434.390625 L 312.472656 1363.382812 C 312.472656 1351.226562 322.328125 1341.371094 334.488281 1341.371094 Z M 1901.96875 1340.929688 L 1901.96875 1340.933594 C 1930.449219 1353.957031 1930.449219 1373.835938 1930.449219 1373.835938 L 1930.449219 1461.382812 L 1873.488281 1461.386719 L 1873.488281 1373.835938 C 1873.488281 1353.960938 1901.96875 1340.929688 1901.96875 1340.929688 Z M 2036.019531 1340.929688 L 2036.019531 1340.933594 C 2064.5 1353.957031 2064.5 1373.835938 2064.5 1373.835938 L 2064.5 1461.382812 L 2007.53125 1461.386719 L 2007.53125 1373.835938 C 2007.53125 1353.960938 2036.019531 1340.929688 2036.019531 1340.929688 Z M 2170.058594 1340.929688 L 2170.058594 1340.933594 C 2198.539062 1353.957031 2198.539062 1373.835938 2198.539062 1373.835938 L 2198.539062 1461.382812 L 2141.570312 1461.386719 L 2141.570312 1373.835938 C 2141.570312 1353.960938 2170.058594 1340.929688 2170.058594 1340.929688 Z M 2304.101562 1340.929688 L 2304.101562 1340.933594 C 2332.570312 1353.957031 2332.570312 1373.835938 2332.570312 1373.835938 L 2332.570312 1461.382812 L 2275.609375 1461.386719 L 2275.609375 1373.835938 C 2275.609375 1353.960938 2304.101562 1340.929688 2304.101562 1340.929688 Z M 2438.140625 1340.929688 L 2438.140625 1340.933594 C 2466.621094 1353.957031 2466.621094 1373.835938 2466.621094 1373.835938 L 2466.621094 1461.382812 L 2409.660156 1461.386719 L 2409.660156 1373.835938 C 2409.660156 1353.960938 2438.140625 1340.929688 2438.140625 1340.929688 Z M 2049.609375 1615.867188 C 2091.121094 1634.84375 2091.121094 1663.808594 2091.121094 1663.808594 L 2091.121094 1678.652344 L 2008.101562 1678.652344 L 2008.101562 1663.808594 C 2008.101562 1634.84375 2049.609375 1615.867188 2049.609375 1615.867188 Z M 2290.511719 1615.867188 C 2332.019531 1634.84375 2332.019531 1663.808594 2332.019531 1663.808594 L 2332.019531 1678.652344 L 2249 1678.652344 L 2249 1663.808594 C 2249 1634.84375 2290.511719 1615.867188 2290.511719 1615.867188 Z M 1808.710938 1615.867188 C 1850.210938 1634.84375 1850.210938 1663.808594 1850.210938 1663.808594 L 1850.210938 1678.652344 L 1767.199219 1678.65625 L 1767.199219 1663.808594 C 1767.199219 1634.84375 1808.710938 1615.867188 1808.710938 1615.867188 Z M 2531.410156 1615.867188 C 2572.921875 1634.84375 2572.921875 1663.808594 2572.921875 1663.808594 L 2572.921875 1678.652344 L 2489.910156 1678.660156 L 2489.910156 1663.808594 C 2489.910156 1634.84375 2531.410156 1615.867188 2531.410156 1615.867188 Z M 3270.320312 1617.921875 L 3270.320312 1617.925781 C 3314.378906 1639.953125 3314.378906 1684.011719 3314.378906 1684.011719 L 3314.378906 1737.09375 L 3226.261719 1737.09375 L 3226.261719 1684.011719 C 3226.261719 1639.953125 3270.320312 1617.921875 3270.320312 1617.921875 Z M 3402.5 1661.984375 C 3418.730469 1661.996094 3431.871094 1675.144531 3431.871094 1691.355469 L 3431.871094 1737.09375 L 3373.128906 1737.097656 L 3373.128906 1691.355469 C 3373.128906 1675.136719 3386.28125 1661.984375 3402.5 1661.984375 Z M 3138.140625 1661.984375 C 3154.378906 1661.996094 3167.519531 1675.144531 3167.519531 1691.355469 L 3167.519531 1737.09375 L 3108.769531 1737.101562 L 3108.769531 1691.355469 C 3108.769531 1675.136719 3121.929688 1661.984375 3138.140625 1661.984375 Z M 1315.039062 234.390625 L 1300.410156 234.488281 L 1300.410156 272.878906 C 1293.441406 275.730469 1288.628906 282.800781 1288.628906 290.359375 C 1288.628906 298.210938 1293.441406 304.890625 1300.410156 307.929688 L 1300.410156 308.71875 C 1294.230469 311.570312 1290.199219 317.949219 1290.199219 325.019531 C 1290.199219 332.089844 1294.230469 338.269531 1300.410156 340.929688 L 1300.410156 346.320312 C 1289.410156 349.570312 1281.359375 359.578125 1281.359375 371.460938 C 1281.359375 383.539062 1289.511719 393.851562 1300.410156 396.789062 L 1300.410156 408.28125 C 1264.28125 411.710938 1235.898438 442.351562 1235.898438 479.761719 C 1235.898438 480.148438 1236 480.941406 1236 481.519531 L 1213.320312 481.621094 L 1213.320312 718.351562 L 1150.679688 718.449219 L 1150.679688 1591.707031 L 1100.601562 1591.804688 L 1057.109375 1562.066406 C 1082.429688 1536.757812 1097.929688 1507.875 1097.929688 1476.703125 C 1097.929688 1398.480469 1036.089844 1337.914062 967.824219 1294.835938 C 905.761719 1255.667969 848.507812 1209.347656 802.148438 1152.449219 L 790.132812 1137.691406 L 778.117188 1152.449219 C 731.753906 1209.347656 674.511719 1255.671875 612.4375 1294.835938 C 544.171875 1337.90625 482.335938 1398.480469 482.335938 1476.699219 C 482.335938 1506.902344 496.878906 1534.953125 520.828125 1559.683594 L 462.394531 1591.703125 L 409.429688 1591.722656 L 409.429688 1200.160156 L 416.398438 1200.148438 C 428.554688 1200.148438 438.417969 1190.289062 438.417969 1178.132812 C 438.417969 1167.824219 431.328125 1159.171875 421.765625 1156.78125 L 421.59375 1156.789062 C 422.554688 1139.128906 415.257812 1121.320312 396.660156 1109.148438 C 343.238281 1074.191406 334.488281 1040.171875 334.488281 1040.171875 C 325.730469 1074.179688 272.289062 1109.148438 272.289062 1109.148438 C 253.703125 1121.308594 246.417969 1139.128906 247.375 1156.78125 L 247.207031 1156.789062 C 237.644531 1159.179688 230.5625 1167.828125 230.5625 1178.132812 C 230.5625 1190.289062 240.417969 1200.148438 252.578125 1200.148438 L 259.546875 1200.148438 L 259.546875 1591.773438 L 180.601562 1591.800781 L 174.484375 1595.523438 L 174.484375 1301.710938 C 174.484375 1168.582031 41.355469 1102.019531 41.355469 1102.019531 C 23.046875 1111.171875 0.0078125 1129.480469 0.0078125 1129.480469 L 0.0195312 1129.480469 L 0 2159.949219 L 3839.441406 2160 L 3839.488281 1601.28125 L 3823.648438 1591.941406 C 3726.878906 1640.324219 3705.398438 1737.09375 3705.398438 1737.09375 L 3685.789062 1737.097656 L 3685.789062 1579.789062 L 3699.269531 1579.792969 L 3699.269531 1535.828125 L 3672.308594 1535.835938 L 3672.308594 1364.988281 L 3699.269531 1364.992188 L 3699.269531 1321.03125 L 3656.761719 1321.035156 L 3656.761719 1209.605469 C 3656.761719 1189.164062 3642.289062 1172.105469 3623.039062 1168.097656 L 3623.039062 1140.308594 C 3629.871094 1137.058594 3634.621094 1130.089844 3634.621094 1122.03125 C 3634.621094 1113.96875 3629.871094 1107.011719 3623.039062 1103.75 L 3623.039062 1090.238281 C 3624.820312 1088.210938 3625.941406 1085.578125 3625.941406 1082.660156 C 3625.941406 1076.269531 3614.351562 1043.289062 3614.351562 1043.289062 C 3602.769531 1076.269531 3602.769531 1082.660156 3602.769531 1082.660156 C 3602.769531 1085.578125 3603.890625 1088.210938 3605.671875 1090.25 L 3605.671875 1103.75 C 3598.839844 1107.019531 3594.089844 1113.96875 3594.089844 1122.039062 C 3594.089844 1130.101562 3598.839844 1137.058594 3605.671875 1140.320312 L 3605.671875 1168.097656 C 3586.410156 1172.105469 3571.949219 1189.160156 3571.949219 1209.605469 L 3571.949219 1321.027344 L 3529.429688 1321.03125 L 3529.429688 1364.984375 L 3556.410156 1364.988281 L 3556.410156 1535.828125 L 3529.429688 1535.828125 L 3529.429688 1579.785156 L 3542.921875 1579.789062 L 3542.921875 1737.09375 L 3485.640625 1737.097656 C 3488.78125 1732.410156 3490.609375 1726.78125 3490.609375 1720.726562 L 3490.609375 1603.238281 C 3490.609375 1587.019531 3477.460938 1573.867188 3461.238281 1573.867188 L 3459.109375 1573.871094 C 3447.550781 1505.09375 3445.070312 1435.027344 3404.03125 1394.78125 C 3363.21875 1354.765625 3309.859375 1342.386719 3274.449219 1310.007812 L 3274.449219 1294.847656 C 3277.691406 1293.296875 3279.960938 1290.007812 3279.960938 1286.179688 C 3279.960938 1282.351562 3277.691406 1279.058594 3274.449219 1277.507812 L 3274.449219 1271.066406 C 3275.300781 1270.09375 3275.828125 1268.847656 3275.828125 1267.457031 C 3275.828125 1265.535156 3273.628906 1258.578125 3272.011719 1253.710938 L 3272.039062 1253.710938 C 3272.28125 1253.710938 3272.488281 1253.714844 3272.699219 1253.714844 C 3282.351562 1253.714844 3290.300781 1246.453125 3291.410156 1237.101562 L 3291.371094 1237.101562 C 3288.628906 1240.273438 3284.589844 1242.289062 3280.078125 1242.289062 C 3271.910156 1242.289062 3265.28125 1235.664062 3265.28125 1227.484375 C 3265.28125 1222.945312 3267.320312 1218.882812 3270.539062 1216.167969 L 3270.519531 1216.167969 C 3261.121094 1217.257812 3253.851562 1225.214844 3253.851562 1234.875 C 3253.851562 1243.925781 3260.238281 1251.488281 3268.75 1253.300781 C 3269.21875 1251.914062 3269.738281 1250.398438 3270.320312 1248.738281 C 3270.320312 1248.738281 3271.070312 1250.867188 3272.011719 1253.703125 C 3270.910156 1253.664062 3269.828125 1253.527344 3268.78125 1253.308594 C 3264.808594 1265.027344 3264.808594 1267.457031 3264.808594 1267.457031 C 3264.808594 1268.847656 3265.351562 1270.097656 3266.191406 1271.066406 L 3266.191406 1277.507812 C 3262.949219 1279.0625 3260.679688 1282.351562 3260.679688 1286.183594 C 3260.679688 1290.011719 3262.949219 1293.300781 3266.191406 1294.851562 L 3266.191406 1310.007812 C 3230.78125 1342.386719 3177.421875 1354.769531 3136.621094 1394.78125 C 3095.570312 1435.03125 3093.089844 1505.097656 3081.53125 1573.867188 L 3079.398438 1573.871094 C 3063.171875 1573.878906 3050.03125 1587.027344 3050.03125 1603.238281 L 3050.03125 1720.726562 C 3050.03125 1726.785156 3051.859375 1732.417969 3055.011719 1737.09375 L 3026.359375 1737.101562 L 3028.710938 1721.464844 L 3028.710938 1457.21875 L 3048.980469 1457.222656 L 3048.980469 1391.160156 L 3008.441406 1391.167969 L 3008.441406 1134.429688 L 3048.980469 1134.429688 L 3048.980469 1068.371094 L 3002.421875 1068.371094 L 3002.421875 884.890625 L 3009.980469 884.878906 C 3023.140625 884.878906 3033.800781 874.210938 3033.800781 861.058594 C 3033.800781 849.910156 3026.128906 840.550781 3015.789062 837.960938 L 3015.628906 837.96875 C 3016.648438 818.871094 3008.75 799.601562 2988.640625 786.429688 C 2960.820312 768.230469 2944.199219 750.269531 2934.449219 736.519531 L 2934.410156 721.539062 C 2937.078125 718.488281 2938.769531 714.53125 2938.769531 710.140625 C 2938.769531 700.53125 2921.359375 650.96875 2921.359375 650.96875 C 2903.960938 700.53125 2903.960938 710.140625 2903.960938 710.140625 C 2903.960938 714.53125 2905.640625 718.480469 2908.308594 721.539062 L 2908.308594 736.558594 C 2898.519531 750.300781 2881.890625 768.238281 2854.089844 786.429688 C 2833.96875 799.601562 2826.070312 818.871094 2827.109375 837.960938 L 2826.941406 837.96875 C 2816.589844 840.550781 2808.929688 849.910156 2808.929688 861.058594 C 2808.929688 874.210938 2819.589844 884.878906 2832.75 884.878906 L 2840.300781 884.878906 L 2840.300781 1068.351562 L 2793.75 1068.359375 L 2793.75 1134.410156 L 2834.289062 1134.410156 L 2834.289062 1391.144531 L 2793.75 1391.148438 L 2793.75 1457.203125 L 2814.019531 1457.207031 L 2814.019531 1721.457031 L 2816.359375 1737.097656 L 2806.828125 1737.101562 C 2795.519531 1703.140625 2763.46875 1678.652344 2725.71875 1678.652344 L 2703.488281 1678.660156 L 2703.488281 1593.878906 L 2639.820312 1514.34375 L 2553.160156 1514.347656 L 2553.160156 1370.945312 L 2572.710938 1370.949219 C 2596.148438 1370.945312 2615.148438 1351.945312 2615.148438 1328.503906 C 2615.148438 1305.058594 2596.148438 1286.058594 2572.710938 1286.058594 L 2558.160156 1286.058594 C 2538.699219 1155.878906 2527.140625 1028.46875 2449.421875 952.261719 C 2366.25 870.710938 2258.109375 844.101562 2184.199219 780.03125 L 2184.199219 780.039062 L 2184.210938 780.039062 C 2186.289062 780.179688 2188.339844 780.300781 2190.410156 780.300781 C 2216.671875 780.300781 2241.199219 768.609375 2257.699219 748.210938 C 2263.441406 741.109375 2268.019531 733.199219 2271.308594 724.691406 L 2271.820312 723.359375 L 2270.628906 724.140625 C 2256.738281 733.128906 2240.609375 737.890625 2223.988281 737.890625 C 2204.5 737.890625 2185.378906 731.121094 2170.179688 718.808594 C 2141.289062 695.421875 2130.789062 656.390625 2144.058594 621.691406 L 2144.558594 620.371094 L 2143.378906 621.140625 C 2135.75 626.101562 2128.960938 632.21875 2123.199219 639.328125 C 2108.660156 657.300781 2101.980469 679.839844 2104.398438 702.828125 C 2106.820312 725.808594 2118.050781 746.480469 2136.019531 761.019531 C 2143.621094 767.179688 2152.199219 771.949219 2161.320312 775.21875 C 2087.339844 842.808594 1975.898438 868.691406 1890.679688 952.261719 C 1812.949219 1028.46875 1801.421875 1155.878906 1781.960938 1286.058594 L 1767.410156 1286.058594 C 1743.949219 1286.066406 1724.96875 1305.0625 1724.96875 1328.503906 C 1724.96875 1351.945312 1743.960938 1370.945312 1767.410156 1370.945312 L 1786.960938 1370.949219 L 1786.960938 1514.34375 L 1700.300781 1514.347656 L 1636.628906 1593.878906 L 1636.628906 1678.652344 L 1614.410156 1678.65625 L 1614.328125 1678.699219 C 1567.160156 1678.699219 1528.921875 1716.960938 1528.921875 1764.136719 L 1528.921875 1771.214844 L 1464.570312 1771.289062 L 1464.578125 717.960938 L 1402.039062 718.058594 L 1402.039062 481.128906 L 1379.351562 481.230469 C 1379.351562 480.550781 1379.449219 479.761719 1379.449219 479.371094 C 1379.449219 441.859375 1351.171875 411.519531 1315.039062 407.890625 L 1315.039062 396.5 C 1325.941406 393.550781 1334.089844 383.238281 1334.089844 371.171875 C 1334.089844 359.28125 1325.941406 349.269531 1315.039062 346.03125 L 1315.039062 340.730469 C 1321.230469 338.078125 1325.351562 331.890625 1325.351562 324.820312 C 1325.351562 317.75 1321.230469 311.371094 1315.039062 308.519531 L 1315.039062 307.738281 C 1321.71875 304.890625 1326.730469 298.019531 1326.730469 290.160156 C 1326.730469 282.601562 1321.820312 275.730469 1315.039062 272.691406 Z M 1315.039062 234.390625 "/>
</svg>
